<svg width="169" height="35" viewBox="0 0 169 35" fill="none" xmlns="http://www.w3.org/2000/svg">
<path fill-rule="evenodd" clip-rule="evenodd" d="M144.285 4.18068L145.575 4.22517C146.458 4.22517 147.103 4.25898 147.465 4.31414C147.837 4.37019 148.109 4.48141 148.29 4.62643C148.529 4.7937 148.686 5.08376 148.742 5.47346C148.788 5.87473 148.822 6.65414 148.822 7.82413V25.0129L131.505 3.43508H122.288V4.18157H125.807L126.608 4.70473V29.1804C126.608 29.2355 126.597 29.3023 126.587 29.3574C126.577 29.4126 126.565 29.458 126.565 29.4909C126.474 30.45 126.281 31.1049 125.998 31.4634C125.716 31.8078 124.969 31.9759 123.759 31.943H120.151L108.965 3H108.343L106.919 6.91038L98.9907 28.6554C98.8552 29.0567 98.707 29.4251 98.5941 29.7258C98.4812 30.0372 98.3574 30.3166 98.2427 30.539C97.8814 31.241 97.4523 31.6636 96.9428 31.7971C96.5472 31.8976 95.9139 31.9537 95.0323 31.9537V31.943H90.7126V4.18068H95.0332V3.4342H86.392L77.31 25.4141L67.602 3.4342H59.3113V4.18068H63.0556L63.4512 4.97165V29.2685C63.4512 30.3495 63.2588 31.0844 62.8749 31.4403C62.4901 31.8069 61.7439 31.9759 60.6473 31.9421H59.1433V32.6877H68.8919V31.9421L67.6029 31.9857C65.9634 31.9857 64.9896 31.7179 64.6734 31.1725C64.3681 30.6369 64.2091 29.8254 64.2091 28.7435V28.3894V28.0433C64.177 27.9195 64.1618 27.792 64.1639 27.6643V6.59808L75.3498 32.1201L86.3884 5.67365V31.943H82.113V32.6886H103.626V31.943L102.246 31.9866C101.172 31.9866 100.413 31.8861 99.9509 31.709C99.4974 31.5195 99.2608 31.1734 99.2608 30.7169C99.2608 30.5728 99.305 30.3379 99.3944 30.0167C99.4866 29.6938 99.6221 29.2471 99.791 28.7008L101.838 23.1311H111.995L115.421 31.943H110.977V32.6886H131.945V31.9866C129.696 31.9866 128.35 31.7971 127.93 31.3958C127.524 31.0061 127.308 29.6368 127.308 27.2968V5.49481L149.228 32.9101H149.487V7.86862C149.487 6.75467 149.51 6.03043 149.533 5.67365C149.556 5.32843 149.659 5.03838 149.805 4.83819C149.828 4.83819 149.861 4.81595 149.872 4.79371C149.891 4.76114 149.914 4.73096 149.941 4.70384C150.087 4.50365 150.336 4.37019 150.698 4.31414C151.049 4.25898 151.672 4.20292 152.564 4.18068H153.808V3.4342H144.284V4.18068H144.285ZM106.917 22.3837H102.11L106.782 9.40608L106.917 9.75129L111.723 22.3846H106.917V22.3837ZM169 4.18068V3.4342H155.914V4.18068H160.222V31.943H155.914V32.6886H169V31.943H164.679V4.18068H169ZM56.3484 32.0311C56.156 32.0862 55.9871 32.1201 55.8389 32.1201C55.7486 32.1423 55.6583 32.1654 55.5679 32.1654H55.2617C54.2897 32.1654 53.6447 31.5853 53.362 30.45C53.0793 29.3138 52.8869 27.9979 52.7622 26.505C52.7396 26.3608 52.7062 26.2149 52.6945 26.0708C52.6827 25.9266 52.6719 25.77 52.6719 25.6259C52.5945 24.6116 52.4548 23.6029 52.2536 22.6053C52.0612 21.6372 51.7225 20.8445 51.2473 20.2332C50.6602 19.4423 49.8671 18.8417 48.8951 18.4297C47.9231 18.016 46.5085 17.6824 44.6648 17.4261C44.756 17.4261 44.8346 17.4146 44.9132 17.4039C44.9917 17.3901 45.0711 17.3827 45.1508 17.3816C47.2664 17.0925 49.1887 16.4572 50.942 15.499C52.6945 14.5292 53.5653 12.8137 53.5653 10.3634C53.5653 7.87929 52.6945 6.14076 50.9646 5.17273C49.2338 4.19224 47.3224 3.63527 45.2411 3.52317C45.0547 3.49159 44.8657 3.4767 44.6766 3.47868C44.495 3.47868 44.3035 3.45644 44.1337 3.4342H28.7736V4.18068H33.0932V31.943H25.8667L14.6916 3H14.0702L12.6447 6.91038L4.71625 28.6554C4.56901 29.0567 4.43351 29.4251 4.32059 29.7258C4.20768 30.0372 4.08302 30.3166 3.95927 30.539C3.60878 31.241 3.17879 31.6636 2.67022 31.7971C2.17249 31.9208 1.2782 31.9759 0 31.943V32.6886H9.34217V31.943L7.96189 31.9866C6.89868 31.9866 6.14079 31.8861 5.67829 31.709C5.21398 31.5195 4.98815 31.1734 4.98815 30.7169C4.98815 30.5728 5.03332 30.3379 5.12365 30.0167C5.20224 29.6938 5.33864 29.2471 5.5193 28.7008L7.56623 23.1311H17.7241L21.1513 31.943H16.6952V32.6886H42.0416V31.943H37.45V17.7713L39.1916 17.8167C40.7977 17.8167 42.1436 17.9155 43.2186 18.1281C44.598 18.3853 45.5483 18.8194 46.046 19.4209C46.9285 20.4895 47.5392 22.3837 47.8671 25.1018C47.924 25.448 47.98 25.8038 48.0026 26.1597C48.0369 26.5058 48.0812 26.8742 48.1381 27.2514C48.3757 29.3806 48.9186 30.8851 49.7668 31.7312C50.6033 32.5658 51.9718 33 53.8381 33C54.3132 33 54.754 32.9795 55.1497 32.9342C55.5453 32.8888 55.941 32.8007 56.3258 32.6895C56.5074 32.6895 56.6772 32.6566 56.8461 32.6005C57.0198 32.5401 57.1897 32.4694 57.3547 32.3888L57.0837 31.8087C56.7892 31.8976 56.5399 31.9759 56.3484 32.0311V32.0311ZM12.6447 22.3837H7.83813L12.5092 9.40608L12.6447 9.75129L17.4513 22.3846H12.6447V22.3837ZM41.1021 16.9919C40.4797 17.0471 39.8465 17.0809 39.2241 17.0925C38.6135 17.104 38.0145 17.104 37.4491 17.0702V4.18068L39.01 4.22517C40.7182 4.22517 42.1202 4.28033 43.2177 4.40311C43.8735 4.48141 44.4164 4.57038 44.8464 4.68159C45.9999 4.99389 46.9502 5.62828 47.6855 6.59808C47.9574 6.9433 48.1941 7.36681 48.3865 7.86862C48.5789 8.35886 48.7379 8.85978 48.8508 9.36159C48.8734 9.58402 48.9068 9.8287 48.9411 10.0636C48.9637 10.286 48.9863 10.5085 48.9863 10.7211C48.9863 13.0486 48.1607 14.6537 46.5094 15.5007C45.4682 16.032 44.3619 16.4288 43.2177 16.6814C42.5276 16.8362 41.8257 16.9359 41.1021 16.9919V16.9919Z" fill="#3F3F3F"/>
</svg>
