<svg width="169" height="35" viewBox="0 0 169 35" fill="none" xmlns="http://www.w3.org/2000/svg">
<path d="M125.631 28.8922L120.401 19.7177C122.718 18.6086 124.193 16.2699 124.195 13.7018C124.195 10.0101 121.191 7.00657 117.499 7.00657H106.314V28.8914H111.288V20.3969H115.247L120.088 28.8922H125.631ZM111.207 16.1722V11.2418H116.567L116.546 11.2502C118.178 11.3378 119.218 12.2836 119.218 13.7119C119.218 15.1246 118.104 16.1145 116.443 16.1735H111.207V16.1722ZM86.0023 28.8922V7.00657H102.354V11.1824H91.1105V15.5608H100.969V19.8297H91.1105V24.4983H102.91V28.8922H86.0023ZM62.6804 28.8922L57.451 19.7177C59.7669 18.6086 61.242 16.2695 61.2441 13.7018C61.2441 10.0101 58.2405 7.00657 54.5489 7.00657H43.3637V28.8914H48.3379V20.3969H52.2978L57.1385 28.8922H62.6804ZM48.255 16.1722V11.2418H53.6162L53.5951 11.2502C55.2268 11.3378 56.2673 12.2836 56.2673 13.7119C56.2673 15.1246 55.1531 16.1145 53.4924 16.1735H48.255V16.1722ZM30.1089 29.4316C36.0929 29.4316 39.6666 25.991 39.6666 20.2289V7.02257H34.5589V19.8874C34.5589 23.003 32.9369 24.7901 30.1094 24.7901H30.1064C27.2789 24.7901 25.6577 23.0034 25.6577 19.8874V7.02257H20.5479V20.2298C20.5479 25.9914 24.1216 29.4321 30.1064 29.4321H30.1089V29.4316ZM13.8674 16.771C16.815 17.7761 18.2517 20.2837 18.2517 22.7015C18.2517 26.108 15.4857 28.8813 12.0821 28.8922H0V7.00488H11.1279C14.0245 7.03183 16.3598 9.38609 16.3632 12.2831C16.367 14.1106 15.4221 15.8093 13.8674 16.7702V16.771V16.771ZM5.01423 24.8086H10.5986C12.3541 24.8086 13.2725 23.4995 13.2725 22.205C13.2725 21.1625 12.4433 19.6946 10.5986 19.6946H5.01423V24.8086ZM9.10334 15.6122C10.3893 15.6122 11.3982 14.6189 11.3982 13.3506C11.3982 12.1244 10.3455 11.0889 9.1025 11.0889H5.01423V15.6122H9.10334V15.6122Z" fill="#3F3F3F"/>
<path d="M78.8748 16.7665C81.8224 17.7708 83.2591 20.2792 83.2591 22.697C83.2591 26.104 80.493 28.876 77.0895 28.8878L65.0078 28.8869V7.00042L76.134 7C79.0315 7.02737 81.3668 9.38205 81.3702 12.2795C81.3735 14.107 80.429 15.8052 78.8744 16.7657L78.8748 16.7665ZM70.0216 24.8041H75.6056C77.3611 24.8041 78.2794 23.495 78.2794 22.2006C78.2794 21.1584 77.4495 19.6901 75.6056 19.6901H70.0216V24.8041ZM74.1095 15.6077C75.3971 15.6077 76.406 14.6144 76.406 13.3461C76.406 12.1199 75.3533 11.0845 74.1095 11.0845H70.0216V15.6077H74.1095V15.6077Z" fill="#3F3F3F"/>
<path d="M147.276 28.892L142.047 19.7175C144.363 18.6084 145.837 16.2693 145.839 13.7015C145.839 10.0099 142.836 7.00635 139.145 7.00635H127.96V28.8912H132.934V20.3967H136.894L141.734 28.892H147.277H147.276ZM132.851 16.172V11.2416H138.212L138.191 11.25C139.823 11.3376 140.864 12.2833 140.864 13.7116C140.864 15.1244 139.749 16.1143 138.088 16.1733H132.851V16.172ZM154.544 28.892V19.9739L145.862 7.00635H152.24L157.238 14.5306L162.257 7.00635H168.635L159.932 19.9739V28.892H154.544Z" fill="#3F3F3F"/>
</svg>
