<svg width="143" height="35" viewBox="0 0 143 35" fill="none" xmlns="http://www.w3.org/2000/svg">
<path fill-rule="evenodd" clip-rule="evenodd" d="M20.5204 23.3828C20.5029 23.4169 20.469 23.4849 20.4523 23.5363C18.6133 27.0103 15.0025 29.3769 10.8815 29.3769C4.90411 29.3769 0 24.37 0 18.1884C0 12.041 4.90411 7 10.8815 7C15.0199 7 18.6473 9.41807 20.469 12.9434C20.5204 13.0115 20.537 13.0455 20.5884 13.1476C20.6058 13.165 17.1145 15.685 17.0804 15.6344C17.063 15.5663 17.0464 15.5149 17.0124 15.4809C16.0071 12.9775 13.6238 11.3085 10.8815 11.36C7.22004 11.394 4.20568 14.4249 4.20568 18.1884C4.20568 21.986 7.22004 25.0518 10.8815 25.0518C13.5384 25.0518 15.8544 23.4169 16.9095 21.1008C16.961 21.0155 16.9784 20.9474 17.0124 20.8794L20.5204 23.3828Z" fill="#3F3F3F"/>
<path fill-rule="evenodd" clip-rule="evenodd" d="M25.0332 7.20508H29.2223V15.0216H40.224V7.20508H44.4471V28.9515H40.224V19.398H29.2223V28.9515H25.0332V7.20508Z" fill="#3F3F3F"/>
<path fill-rule="evenodd" clip-rule="evenodd" d="M103.573 28.9515V7.20508H118.78V11.5982H107.813V15.9406H117.946V20.2832H107.813V24.6256H120.33V28.9515H103.573Z" fill="#3F3F3F"/>
<path fill-rule="evenodd" clip-rule="evenodd" d="M126.273 28.9515V7.20508H130.531V24.6256H142.35V28.9515H126.273Z" fill="#3F3F3F"/>
<path fill-rule="evenodd" clip-rule="evenodd" d="M80.7191 28.9515H80.583H76.4619V7.20508H76.7681H82.3706L91.686 20.2832V7.20508H95.9091V28.9515H92.5373L80.7191 12.5521V28.9515Z" fill="#3F3F3F"/>
<path fill-rule="evenodd" clip-rule="evenodd" d="M60.4379 11.5982L56.7258 20.2832H64.3207L60.4379 11.5982ZM54.8179 24.6256L52.8768 28.9515H47.8359L57.4748 7.20508H63.3668L73.0737 28.9515H68.0328L66.0751 24.6256H54.8179Z" fill="#3F3F3F"/>
</svg>
