<svg width="89" height="36" viewBox="0 0 89 36" fill="none" xmlns="http://www.w3.org/2000/svg">
<path d="M74.6912 21.5161C74.6634 21.3492 74.6634 21.204 75.4947 20.9444C76.323 20.6879 78.338 20.0049 79.5618 19.328C80.7857 18.645 80.9897 18.5492 81.2771 18.7408C81.5645 18.9294 81.4811 19.3929 81.4811 19.7205V23.0397C81.9292 22.3042 83.4003 19.8565 84.5685 19.1364C85.4864 18.5678 85.8109 18.5214 86.3795 18.5091C87.0625 18.4967 88.6758 18.917 88.7468 20.6199C88.8025 21.9519 87.8197 22.4865 87.1954 22.4031C86.6947 22.332 86.3362 21.8715 86.0396 21.4079C85.7398 20.9382 85.2638 20.66 84.7879 20.8208C84.312 20.9845 81.6448 22.7152 81.4934 25.1753C81.3852 26.9863 81.4934 32.6327 81.4934 32.6327C81.4934 33.4887 81.821 33.8194 82.2042 34.0481C82.5844 34.2799 83.9844 34.2923 84.3769 34.3479C84.7755 34.4035 84.7601 34.4962 84.7601 34.6199C84.7601 34.7404 84.7601 34.7991 84.4078 34.7991H75.0311C74.7314 34.7991 74.6108 34.7404 74.6108 34.5642C74.6108 34.3201 75.0033 34.3634 75.3031 34.3201C75.6029 34.2799 77.1883 34.4097 77.6426 33.6124C77.9764 33.0901 77.9362 32.2494 77.9362 32.2494L77.8899 22.332C77.8899 21.5316 77.6519 21.4141 77.4325 21.2874C77.21 21.1607 76.8422 21.0927 76.0665 21.3554C75.334 21.5965 74.8303 21.8221 74.6912 21.5161Z" fill="#3F3F3F"/>
<path d="M41.8985 21.5193C41.7718 21.2751 42.0067 21.1175 42.702 20.9352C43.4778 20.7281 45.1775 20.212 46.525 19.4487C47.8725 18.6884 48.1042 18.608 48.3886 18.7008C48.676 18.7966 48.6482 19.3003 48.6482 19.7083V32.54C48.6482 33.2601 48.744 33.5599 49.0685 33.8597C49.3961 34.1595 50.212 34.3356 51.272 34.3356C51.751 34.3356 51.8994 34.3913 51.8994 34.5952C51.8994 34.7992 51.751 34.7992 51.5594 34.7992H42.2539C41.9665 34.7992 41.8985 34.6756 41.8985 34.5551C41.8985 34.4036 42.0252 34.3078 42.4579 34.3078C42.8226 34.3078 44.5069 34.4345 44.8901 33.5599C45.0385 33.2261 45.1095 32.7595 45.1095 32.3237V22.1436C45.1095 21.371 44.51 21.0279 43.8177 21.1948C43.008 21.3802 42.0654 21.8376 41.8985 21.5193Z" fill="#3F3F3F"/>
<path d="M46.6423 12.6433C47.9063 12.6433 48.9324 11.6172 48.9324 10.3563C48.9324 9.0923 47.9063 8.06934 46.6423 8.06934C45.3814 8.06934 44.3584 9.0923 44.3584 10.3563C44.3584 11.6172 45.3814 12.6433 46.6423 12.6433Z" fill="#3F3F3F"/>
<path d="M57.8268 27.1965C58.2872 31.3594 60.7658 34.5982 63.8378 34.0543C66.9159 33.5104 68.4581 30.5713 68.0872 25.8645C67.7071 21.0773 65.3398 18.6883 62.1535 18.9757C58.859 19.2755 57.3632 23.0305 57.8268 27.1965ZM60.874 18.2433C64.8391 17.5015 70.4793 18.3762 71.7619 24.5819C73.0413 30.7876 68.7703 34.0914 65.0647 34.898C61.4427 35.683 55.2925 35.1236 54.18 28.4481C53.1786 22.4556 57.527 18.8675 60.874 18.2433Z" fill="#3F3F3F"/>
<path d="M13.9289 33.7947H16.2283C24.7828 33.7947 27.079 33.0004 30.0892 29.0013C33.0993 25.0022 33.4578 19.26 33.4578 17.3192C33.4578 15.3784 32.9417 10.5077 29.9316 6.38808C26.9183 2.26843 21.8901 1.19912 17.4923 1.19912H13.9104C13.0605 1.19912 13.0172 1.57616 13.0172 2.16954V33.0406C13.0172 33.7143 13.2552 33.7947 13.9289 33.7947ZM0 34.5179C0 34.2057 0.404856 34.1532 0.781898 34.1408C5.13642 34.0172 5.94923 33.8658 6.4468 33.3497C6.71876 33.0653 7.11744 32.8336 7.11744 30.8154V3.05033C7.11744 0.556291 4.08874 0.951875 1.95011 0.73245C1.19912 0.658278 1.13731 0.556291 1.13731 0.336865C1.13731 0.120529 1.27947 0.0154523 1.67196 0H19.2168C38.5077 0 39.4936 14.102 39.4936 17.8631C39.4936 25.9448 34.1501 34.8331 22.981 34.8331H0.562472C0.287417 34.8331 0 34.796 0 34.5179Z" fill="#3F3F3F"/>
</svg>
