<svg width="102" height="35" viewBox="0 0 102 35" fill="none" xmlns="http://www.w3.org/2000/svg">
<path d="M0.00187781 4.01095C6.05204 4.01095 12.1009 4.01624 18.1511 4.0083C18.1576 5.66188 18.1641 7.31546 18.1485 8.97036C13.876 8.96903 9.60224 8.96639 5.32847 8.97168C5.33107 11.0473 5.32587 13.1241 5.33107 15.1997C9.07257 15.1918 12.8141 15.1984 16.5543 15.1971C16.5751 16.8454 16.5504 18.4936 16.5673 20.1419C12.8219 20.138 9.07778 20.1459 5.33368 20.138C5.32457 24.0484 5.32847 27.9587 5.33107 31.8691C3.55728 31.8493 1.78348 31.8493 0.00968621 31.8678C-0.00983465 22.5826 0.00708338 13.2961 0.00187781 4.01095V4.01095Z" fill="#3F3F3F"/>
<path d="M21.68 31.8689C21.6735 22.5798 21.6722 13.2906 21.6813 4.00146C27.9332 4.02131 34.1864 4.01073 40.4396 4.00676C40.4409 5.66166 40.4331 7.31656 40.4435 8.97014C35.9289 8.97014 31.4131 8.9622 26.8986 8.97543C26.9129 10.9174 26.8999 12.8607 26.9051 14.804C31.0513 14.7934 35.1963 14.8 39.3425 14.8C39.3269 16.447 39.3451 18.0953 39.3308 19.7422C35.1897 19.7462 31.0474 19.7488 26.9064 19.7396C26.896 22.1234 26.9168 24.5072 26.896 26.8896C31.6148 26.9055 36.3337 26.8923 41.0538 26.8963C41.0655 28.5498 41.0655 30.2034 41.0538 31.8583C34.5963 31.8636 28.1375 31.8411 21.68 31.8689V31.8689Z" fill="#3F3F3F"/>
<path d="M45.0588 4.00146C46.938 4.01602 48.8172 4.01998 50.6964 4.00146C54.0865 10.4742 57.4753 16.947 60.8719 23.4158C60.8837 16.9483 60.8824 10.4808 60.8719 4.01469C62.5286 4.00543 64.1853 4.01734 65.842 4.00808C65.8498 13.2933 65.8485 22.5784 65.8433 31.8636C64.0708 31.8504 62.2983 31.8583 60.5271 31.8583C57.0498 25.2294 53.5646 18.6045 50.0691 11.9849C50.0704 18.6125 50.0717 25.2387 50.0678 31.8662C48.3981 31.8517 46.7271 31.8451 45.0562 31.8702C45.0679 22.5811 45.0627 13.2906 45.0588 4.00146V4.00146Z" fill="#3F3F3F"/>
<path d="M70.9303 4.00684C74.8006 4.01874 78.6709 4.00683 82.5413 4.01345C84.6638 4.04784 86.8372 4.65636 88.473 6.08108C90.1869 7.44627 91.1877 9.50465 91.8137 11.5802C92.342 13.4706 92.5347 15.4417 92.5672 17.4021C92.4904 20.4302 92.0701 23.5309 90.6945 26.256C89.833 28.1438 88.3975 29.7722 86.599 30.7763C85.2807 31.5052 83.775 31.8121 82.2862 31.8517C78.5044 31.8703 74.7212 31.8372 70.9394 31.8689C70.9134 22.5811 70.9316 13.2933 70.9303 4.00684V4.00684ZM76.2048 8.86174C76.1905 14.9085 76.197 20.9553 76.2009 27.0021C77.8836 26.9942 79.565 27.0021 81.2477 26.9982C81.9361 26.9796 82.6389 26.8923 83.274 26.6092C84.5038 26.0933 85.377 24.9755 85.9561 23.7942C86.9335 21.6406 87.1469 19.2145 87.0831 16.8717C87.0246 14.6268 86.6888 12.2231 85.2326 10.4399C84.3567 9.33665 82.907 8.97021 81.577 8.88158C79.7862 8.84851 77.9955 8.8882 76.2048 8.86174V8.86174Z" fill="#3F3F3F"/>
<path d="M96.1261 31.8754C96.1066 22.5836 96.1092 13.2918 96.1248 4C97.896 4.02646 99.6685 4.00661 101.44 4.00794C101.448 13.2905 101.451 22.5743 101.438 31.8582C99.6672 31.8661 97.896 31.8317 96.1261 31.8754Z" fill="#3F3F3F"/>
</svg>
