<svg width="126" height="35" viewBox="0 0 126 35" fill="none" xmlns="http://www.w3.org/2000/svg">
<path d="M114.06 12.3339L113.834 12.4155C112.953 10.3454 111.693 8.69737 110.056 7.47147C108.445 6.24629 106.418 5.6337 103.976 5.6337C102.616 5.6337 101.319 5.94697 100.085 6.57353C98.851 7.17216 97.7683 8.03 96.8368 9.14706C95.9298 10.2362 95.1996 11.5573 94.6461 13.1105C94.092 14.6622 93.8149 16.3779 93.8149 18.2575C93.8149 20.1365 94.092 21.8522 94.6461 23.4046C95.2002 24.957 95.9305 26.2918 96.8368 27.4088C97.7683 28.498 98.8507 29.3422 100.084 29.9415C101.319 30.5409 102.616 30.8406 103.976 30.8406C106.393 30.8406 108.357 30.432 109.868 29.615C111.404 28.7701 112.7 27.4898 113.758 25.7741L113.985 25.8557L113.909 28.47C113.33 29.1238 112.663 29.7095 111.907 30.2273C111.153 30.7178 110.334 31.1402 109.453 31.4947C108.596 31.8205 107.703 32.0654 106.771 32.2294C105.839 32.4198 104.907 32.5151 103.976 32.5151C102.037 32.5151 100.186 32.1749 98.4237 31.4947C96.6607 30.813 95.1119 29.8596 93.7772 28.6344C92.4425 27.3813 91.3849 25.8833 90.6044 24.1404C89.8239 22.3702 89.4336 20.4093 89.4336 18.2575C89.4336 16.1058 89.8242 14.1581 90.6054 12.4145C91.3853 10.6444 92.4425 9.13309 93.7772 7.8807C95.1119 6.62759 96.6607 5.67415 98.4237 5.02039C100.186 4.34013 102.036 4 103.975 4C104.907 4 105.839 4.08128 106.771 4.24383C107.703 4.4078 108.596 4.66665 109.453 5.02039C110.334 5.34763 111.152 5.77011 111.907 6.28783C112.663 6.77762 113.33 7.34939 113.909 8.00316L114.06 12.3339Z" fill="#3F3F3F"/>
<path d="M27.219 20.1366C26.9361 20.2727 26.6661 20.4495 26.4089 20.6672C26.1518 20.8849 26.0232 21.1845 26.0232 21.5662V26.5917C24.7869 28.4706 23.2034 29.9277 21.2727 30.9631C19.3427 31.9978 17.2067 32.5151 14.8646 32.5151C12.8825 32.5151 10.9904 32.1746 9.18836 31.4937C7.38696 30.8127 5.80414 29.8593 4.43989 28.6335C3.07565 27.3804 1.9946 25.8828 1.19676 24.1407C0.39892 22.3699 0 20.4087 0 18.257C0 16.106 0.399259 14.1588 1.19778 12.4152C1.99494 10.6452 3.07565 9.13362 4.43989 7.88055C5.80414 6.62749 7.38696 5.67446 9.18836 5.02143C10.9904 4.34048 12.8825 4 14.8646 4C15.8167 4 16.7689 4.08162 17.721 4.24488C18.6738 4.40814 19.5874 4.66699 20.4617 5.02143C21.363 5.34794 22.1998 5.77005 22.9719 6.28774C23.744 6.77823 24.4262 7.34998 25.0183 8.00301L25.1736 12.3336L24.9411 12.4152C24.0411 10.3459 22.7544 8.69828 21.0809 7.47242C19.4331 6.24657 17.361 5.63363 14.8646 5.63363C13.4746 5.63363 12.149 5.9469 10.8876 6.57343C9.62687 7.17276 8.52045 8.03056 7.56832 9.14686C6.64123 10.2367 5.89448 11.5578 5.32807 13.1101C4.76167 14.6625 4.47846 16.3781 4.47846 18.257C4.47846 20.1087 4.74915 21.8107 5.29052 23.3631C5.85625 24.9162 6.60232 26.2508 7.52873 27.3671C8.48154 28.4562 9.5883 29.314 10.849 29.9406C12.1104 30.5399 13.4489 30.8396 14.8646 30.8396C17.5417 30.8396 19.8323 30.295 21.7366 29.2059V21.5662C21.7366 21.1852 21.5952 20.8856 21.3123 20.6672C21.0551 20.4495 20.798 20.2723 20.5408 20.1355L20.5754 19.9315C20.7039 19.9565 20.9357 19.9837 21.2707 20.0131C21.6056 20.0381 21.9531 20.0654 22.3131 20.0947H25.6334C25.9427 20.0697 26.2387 20.0424 26.5216 20.0131C26.8045 19.988 27.023 19.9608 27.1773 19.9315L27.219 20.1366Z" fill="#3F3F3F"/>
<path d="M55.7338 5.49575C55.4827 5.62866 55.2315 5.80178 54.9803 6.01513C54.7284 6.22778 54.59 6.62684 54.5648 7.21233C54.5417 7.85098 54.5166 8.66242 54.4895 9.64663C54.4895 10.605 54.4782 11.6962 54.4558 12.9203C54.4558 14.1438 54.4442 15.4739 54.4211 16.9107V21.3805C54.3979 23.1097 54.1966 24.5864 53.8172 25.8105C53.4404 27.0347 52.9377 28.0587 52.3091 28.8828C51.7056 29.7082 51.0268 30.3601 50.2725 30.8386C49.5434 31.3178 48.8143 31.677 48.0852 31.9162C47.3813 32.182 46.715 32.3418 46.0863 32.3957C45.4577 32.4755 44.9672 32.5153 44.6149 32.5153C43.1818 32.5153 41.799 32.316 40.4664 31.9173C39.1338 31.5444 37.9648 30.9323 36.9594 30.081C35.954 29.229 35.1495 28.1249 34.546 26.7685C33.9425 25.4115 33.6407 23.7617 33.6407 21.8191V17.3094V13.1585C33.6407 11.8819 33.6292 10.7382 33.606 9.72742C33.606 8.68935 33.5945 7.85098 33.5713 7.21233C33.5489 6.62684 33.4107 6.22812 33.1569 6.01617C32.9057 5.80282 32.6545 5.62936 32.4033 5.49575L32.437 5.29639C32.5626 5.32087 32.7642 5.34744 33.0419 5.37612C33.3433 5.4006 33.6447 5.42719 33.9461 5.45587C34.2733 5.45587 34.5873 5.46811 34.8881 5.4926H36.2465C36.5485 5.46811 36.8629 5.45587 37.1894 5.45587C37.5166 5.43138 37.8184 5.4048 38.0947 5.37612C38.3961 5.35164 38.6096 5.32507 38.7352 5.29639L38.7699 5.49575C38.4936 5.62866 38.2295 5.80178 37.9777 6.01513C37.7516 6.22778 37.626 6.62684 37.6009 7.21233C37.5777 7.85098 37.5526 8.68901 37.5255 9.72638V21.8191C37.5255 24.7193 38.1667 26.8612 39.4491 28.2448C40.7314 29.6285 42.6296 30.3203 45.1434 30.3203C45.8725 30.3203 46.7021 30.2269 47.6321 30.0401C48.5628 29.8275 49.4304 29.4018 50.2349 28.7632C51.0644 28.1245 51.7559 27.22 52.3091 26.0498C52.8875 24.8788 53.1767 23.3224 53.1767 21.3805C53.1767 19.2785 53.1651 17.4825 53.142 15.9926C53.142 14.476 53.1304 13.1854 53.1073 12.1208C53.1073 11.0296 53.0957 10.0985 53.0726 9.32765C53.0501 8.55609 53.025 7.85098 52.9972 7.21233C52.9748 6.62684 52.8366 6.22778 52.5828 6.01513C52.3316 5.80248 52.0804 5.62936 51.8292 5.49575L51.8629 5.29639C52.1399 5.34955 52.4542 5.40306 52.8059 5.45692C53.1582 5.48071 53.4854 5.4926 53.7875 5.4926C54.0631 5.4926 54.3771 5.48071 54.7294 5.45692C55.1062 5.40376 55.4331 5.35025 55.71 5.29639L55.7338 5.49575Z" fill="#3F3F3F"/>
<path d="M84.249 12.3339L84.0107 12.4155C83.0825 10.3454 81.757 8.69737 80.0344 7.47147C78.3383 6.24629 76.2045 5.6337 73.6332 5.6337C72.2025 5.6337 70.8378 5.94697 69.5388 6.57353C68.2399 7.17216 67.1002 8.03 66.1197 9.14706C65.1651 10.2362 64.3964 11.5573 63.8139 13.1105C63.2306 14.6622 62.939 16.3779 62.939 18.2575C62.939 20.1365 63.2306 21.8522 63.8139 23.4046C64.3964 24.957 65.1651 26.2918 66.1197 27.4088C67.1002 28.498 68.2396 29.3422 69.5378 29.9415C70.8374 30.5409 72.2025 30.8406 73.6332 30.8406C76.1781 30.8406 78.2456 30.432 79.8358 29.615C81.4525 28.7701 82.8176 27.4898 83.9312 25.7741L84.1695 25.8557L84.0901 28.47C83.4804 29.1238 82.7779 29.7095 81.9828 30.2273C81.1884 30.7178 80.3271 31.1402 79.3989 31.4947C78.4979 31.8205 77.5571 32.0654 76.5767 32.2294C75.5955 32.4198 74.6147 32.5151 73.6342 32.5151C71.5924 32.5151 69.6441 32.1749 67.789 31.4947C65.934 30.813 64.3041 29.8596 62.8992 28.6344C61.4944 27.3813 60.3812 25.8833 59.5596 24.1404C58.7373 22.3702 58.3262 20.4093 58.3262 18.2575C58.3262 16.1058 58.7373 14.1581 59.5596 12.4145C60.3819 10.6444 61.4951 9.13309 62.8992 7.8807C64.3041 6.62759 65.934 5.67415 67.789 5.02039C69.6447 4.34013 71.5931 4 73.6342 4C74.6147 4 75.5952 4.08128 76.5756 4.24383C77.5568 4.4078 78.4975 4.66665 79.3979 5.02039C80.3261 5.34763 81.1877 5.77011 81.9828 6.28783C82.7779 6.77762 83.4804 7.34939 84.0901 8.00316L84.249 12.3339Z" fill="#3F3F3F"/>
<path d="M125.69 29.9162C125.563 29.8942 125.345 29.8698 125.038 29.8432C124.757 29.8432 124.45 29.8319 124.117 29.8091C123.784 29.8091 123.464 29.7981 123.157 29.776H120.855C120.547 29.7981 120.24 29.8224 119.932 29.8491C119.651 29.8718 119.434 29.8964 119.28 29.923L119.245 29.7751C119.501 29.6518 119.756 29.4911 120.012 29.2932C120.269 29.0959 120.41 28.7256 120.435 28.1824C120.459 27.5899 120.47 26.9727 120.47 26.3308C120.494 25.689 120.506 24.9608 120.506 24.1463V21.3689V17.6297V13.8895V11.0761C120.506 10.2609 120.494 9.54475 120.47 8.92756C120.47 8.28569 120.459 7.66882 120.435 7.07693C120.412 6.53372 120.271 6.16345 120.013 5.96616C119.757 5.74355 119.502 5.57059 119.246 5.44728L119.28 5.29931C119.434 5.34864 119.651 5.38563 119.932 5.41029C120.24 5.41029 120.547 5.42165 120.854 5.44437C121.187 5.46708 121.507 5.47844 121.814 5.47844H123.157C123.464 5.45573 123.784 5.44437 124.116 5.44437C124.45 5.42165 124.757 5.39699 125.038 5.37038C125.345 5.34766 125.563 5.323 125.69 5.29639L125.726 5.44533C125.445 5.56864 125.176 5.74129 124.919 5.96325C124.689 6.16054 124.561 6.53047 124.536 7.07304C124.512 7.66622 124.487 8.28375 124.459 8.92561V26.3289C124.483 26.9701 124.508 27.587 124.536 28.1795C124.559 28.7227 124.687 29.093 124.919 29.2903C125.175 29.4876 125.444 29.6482 125.726 29.7721L125.69 29.9162Z" fill="#3F3F3F"/>
</svg>
