<svg width="136" height="35" viewBox="0 0 136 35" fill="none" xmlns="http://www.w3.org/2000/svg">
<path fill-rule="evenodd" clip-rule="evenodd" d="M121.893 4.53443H135.125V6.65112C134.741 6.52187 134.338 6.45527 133.933 6.45388H126.327V16.3455H133.725C134.257 16.3455 134.73 16.2861 135.125 16.1875V18.294C134.789 18.2164 134.327 18.1765 133.756 18.1765H126.327V28.4039H133.706C134.11 28.4039 134.593 28.3445 135.125 28.2168V30.4916H121.913C122.012 30.1145 122.071 29.7099 122.071 29.2654V5.79037C122.071 5.27625 122.012 4.85059 121.893 4.53443ZM118.829 11.271L115.006 11.2413C114.818 9.08542 113.587 6.99774 110.878 6.61196C105.075 6.08768 103.438 12.4878 103.586 17.1664C103.734 21.6768 104.454 28.6113 110.443 28.6113C112.956 28.6113 115.369 26.0197 115.292 23.8326L118.828 23.8044C118.572 28.314 113.418 30.9253 110.965 31.0144C102.582 31.3016 99.073 25.6919 98.8967 17.69C98.7386 10.4393 101.694 4 109.98 4C117.076 4.09934 118.444 8.31315 118.829 11.271V11.271ZM59.2031 27.5417L61.7354 25.4156C63.0556 27.6026 64.1397 28.6012 66.7601 28.6012C69.4201 28.6012 71.6577 26.9783 71.6577 24.1104C71.6577 22.6956 71.0849 21.5383 69.9524 20.6688C69.4404 20.262 68.1396 19.5601 66.0905 18.5812C63.026 17.1069 60.0409 15.1882 60.0409 11.3305C60.0409 6.46403 64.1592 4.31761 68.5036 4.1588C71.0755 4.06018 74.2672 5.48509 75.5586 7.08693L72.9866 9.07526C72.528 8.21607 71.8463 7.49759 71.0137 6.99609C70.1812 6.49458 69.2289 6.22879 68.258 6.22691C64.9768 6.22691 62.376 10.0448 65.0953 12.6763C65.785 13.3493 67.1942 14.1795 69.3414 15.1694C72.7707 16.7821 75.6965 18.711 75.6965 22.9741C75.6965 24.4468 75.313 25.8224 74.5539 27.0784C73.0263 29.6106 70.4746 30.8767 66.9089 30.8767C62.8086 30.8759 62.0011 29.9369 59.2031 27.5417V27.5417ZM23.1237 4.53443H36.346V6.65112C35.9616 6.52169 35.559 6.4551 35.1535 6.45388H27.5475V16.3455H34.9462C35.4785 16.3455 35.9516 16.2861 36.346 16.1875V18.294C36.0108 18.2164 35.5479 18.1765 34.986 18.1765H27.5475V28.4039H34.9267C35.3305 28.4039 35.8137 28.3445 36.3452 28.2168V30.4916H23.1432C23.232 30.1145 23.2912 29.7099 23.2912 29.2654V5.79037C23.2912 5.27625 23.232 4.85059 23.1237 4.53443ZM0 4.53443H4.80804V4.77155C4.80804 4.98982 4.87738 5.27625 4.99511 5.64245L11.7735 26.1284L18.7288 5.55325C18.8371 5.20664 18.8963 4.8709 18.8963 4.53443H21.2306C20.9945 4.94994 20.8168 5.31613 20.7085 5.64245L12.7673 29.4329C12.6886 29.6592 12.6192 30.0166 12.56 30.4909H8.61865C8.55935 30.1315 8.47045 29.7776 8.35286 29.4329L0.572025 5.83025C0.483188 5.61271 0.296124 5.16748 0.0101115 4.53443H0ZM51.0648 18.067C54.2174 17.4441 56.6312 15.02 56.6312 11.5582C56.6312 7.01731 52.8487 4.53443 48.6113 4.53443H40.8673C40.9756 4.93036 41.0348 5.34586 41.0348 5.78094V29.2444C41.0348 29.7483 40.9756 30.1733 40.8673 30.4909H45.4781C45.3659 30.085 45.3098 29.6656 45.3113 29.2444V18.4622L46.789 18.621L54.5135 30.4909H59.154L51.0648 18.067ZM50.2667 16.0881C49.4296 16.682 48.4242 16.9786 47.2722 16.9786H45.3012V6.42342H47.0642C48.5723 6.42342 49.7438 6.79977 50.5816 7.55102C51.7249 8.59015 52.3063 9.99475 52.3063 11.7554C52.3063 13.6545 51.626 15.099 50.2667 16.0881V16.0881ZM98.129 29.4126L89.5183 5.39517C89.4224 5.1176 89.366 4.82783 89.3507 4.53443H85.6268C85.6268 4.84116 85.5777 5.16748 85.4592 5.49379L77.115 29.4126C77.0067 29.7585 76.829 30.1138 76.5928 30.4902H78.9965C78.9818 30.125 79.032 29.7601 79.1446 29.4126L81.6161 22.3591H91.1239L93.5672 29.4126C93.6958 29.7977 93.755 30.153 93.755 30.4902H98.74C98.4547 30.0855 98.2474 29.7186 98.129 29.4126V29.4126ZM82.2661 20.4506L86.2862 8.72865L90.4139 20.4506H82.2661Z" fill="#3F3F3F"/>
</svg>
