<svg width="45" height="43" viewBox="0 0 45 43" fill="none" xmlns="http://www.w3.org/2000/svg">
<rect x="1.5" y="9.5" width="35" height="32" fill="white" stroke="black" stroke-width="3"/>
<path d="M19.1796 34.22C17.9929 34.22 17.0596 33.9867 16.3796 33.52C15.7129 33.0533 15.2463 32.42 14.9796 31.62C14.7129 30.8067 14.5796 29.8733 14.5796 28.82V23.04C14.5796 21.9333 14.7129 20.9733 14.9796 20.16C15.2463 19.3467 15.7129 18.72 16.3796 18.28C17.0596 17.84 17.9929 17.62 19.1796 17.62C20.2996 17.62 21.1729 17.8133 21.7996 18.2C22.4396 18.5733 22.8929 19.1133 23.1596 19.82C23.4263 20.5267 23.5596 21.3467 23.5596 22.28V23.64H20.7196V22.24C20.7196 21.7867 20.6929 21.3733 20.6396 21C20.5996 20.6267 20.4729 20.3333 20.2596 20.12C20.0596 19.8933 19.7063 19.78 19.1996 19.78C18.6929 19.78 18.3196 19.9 18.0796 20.14C17.8529 20.3667 17.7063 20.68 17.6396 21.08C17.5729 21.4667 17.5396 21.9067 17.5396 22.4V29.44C17.5396 30.0267 17.5863 30.5133 17.6796 30.9C17.7729 31.2733 17.9396 31.56 18.1796 31.76C18.4329 31.9467 18.7729 32.04 19.1996 32.04C19.6929 32.04 20.0396 31.9267 20.2396 31.7C20.4529 31.46 20.5863 31.1467 20.6396 30.76C20.6929 30.3733 20.7196 29.94 20.7196 29.46V28H23.5596V29.3C23.5596 30.26 23.4329 31.1133 23.1796 31.86C22.9263 32.5933 22.4796 33.1733 21.8396 33.6C21.2129 34.0133 20.3263 34.22 19.1796 34.22Z" fill="black"/>
<path d="M41.8488 37V32.6849H43V2H11.5349V4.87671H10" stroke="white" stroke-width="3"/>
</svg>
