<svg width="94.000000" height="44.000000" viewBox="0 0 94 44" fill="none" xmlns="http://www.w3.org/2000/svg" xmlns:xlink="http://www.w3.org/1999/xlink">
	<rect id="Rectangle" x="1.500000" y="10.500000" width="82.000000" height="32.000000" stroke="#FFFFFF" stroke-opacity="1.000000" stroke-width="3.000000"/>
	<path id="crisp" d="M16.52 33.86C17.23 34.79 18.42 35.25 20.1 35.25Q22.37 35.25 23.38 34.13Q23.44 34.05 23.5 33.98C24.15 33.11 24.48 31.9 24.48 30.34L24.48 29.04L21.64 29.04L21.64 30.5Q21.64 31.38 21.54 31.92C21.49 32.26 21.35 32.54 21.12 32.75C20.91 32.97 20.57 33.08 20.12 33.08C19.49 33.08 19.06 32.88 18.82 32.48C18.58 32.06 18.46 31.4 18.46 30.48L18.46 23.46Q18.46 22.58 18.56 22.04C18.64 21.66 18.8 21.37 19.04 21.16C19.28 20.93 19.64 20.82 20.12 20.82C20.59 20.82 20.93 20.92 21.14 21.14C21.37 21.34 21.51 21.6 21.56 21.94C21.61 22.26 21.64 22.7 21.64 23.28L21.64 24.68L24.48 24.68L24.48 23.32Q24.48 21.06 23.48 19.86C22.81 19.06 21.69 18.66 20.1 18.66Q17.77 18.66 16.7 19.82Q16.61 19.92 16.52 20.04Q15.48 21.42 15.48 24.08L15.48 29.86Q15.48 32.43 16.52 33.86ZM50.04 34.02C50.77 34.84 51.87 35.25 53.34 35.25C54.14 35.25 54.85 35.09 55.46 34.75C56.07 34.41 56.55 33.93 56.88 33.34C57.23 32.74 57.4 32.05 57.4 31.28C57.4 30.29 57.19 29.42 56.76 28.68C56.33 27.93 55.74 27.23 54.98 26.58L52.96 24.8C52.49 24.4 52.15 24.02 51.94 23.68C51.74 23.32 51.64 22.88 51.64 22.36C51.64 21.92 51.76 21.56 52 21.28C52.24 20.98 52.57 20.84 53 20.84C53.6 20.84 54 21.06 54.2 21.52C54.41 21.96 54.54 22.62 54.58 23.5L57.12 23.06C57.03 21.71 56.67 20.64 56.06 19.86C55.46 19.06 54.46 18.66 53.06 18.66C51.75 18.66 50.73 19.01 49.98 19.71C49.25 20.41 48.88 21.39 48.88 22.66C48.88 23.51 49.03 24.24 49.34 24.86C49.66 25.47 50.13 26.04 50.76 26.58L52.8 28.36C53.41 28.89 53.86 29.38 54.14 29.84C54.43 30.28 54.58 30.82 54.58 31.46C54.58 31.92 54.47 32.3 54.24 32.58C54.03 32.84 53.69 32.98 53.24 32.98C52.63 32.98 52.17 32.71 51.88 32.18Q51.46 31.36 51.4 29.82L48.86 30.32Q48.96 32.78 50.04 34.02ZM32.44 18.84L28.54 18.84L28.54 35.04L31.48 35.04L31.48 27.62L32.88 27.62L34.82 35.04L37.78 35.04L35.52 27.06C36.25 26.76 36.77 26.3 37.06 25.66C37.37 25 37.52 24.16 37.52 23.14C37.52 21.56 37.1 20.45 36.26 19.82C35.42 19.16 34.15 18.84 32.44 18.84ZM44.75 18.84L41.83 18.84L41.83 35.04L44.75 35.04L44.75 18.84ZM65.9 18.84L61.14 18.84L61.14 35.04L64.08 35.04L64.08 27.84L65.7 27.84Q67.84 27.84 68.93 26.77Q70.04 25.67 70.04 23.44C70.04 20.37 68.66 18.84 65.9 18.84ZM34.2 25.2C33.85 25.58 33.26 25.78 32.42 25.78L31.48 25.78L31.48 20.86L32.58 20.86C33.39 20.86 33.95 21.05 34.26 21.44C34.58 21.82 34.74 22.44 34.74 23.3Q34.74 24.62 34.2 25.2ZM66.84 25.26C66.56 25.59 66.02 25.76 65.22 25.76L64.08 25.76L64.08 20.92L65.22 20.92C65.82 20.92 66.26 21 66.54 21.18C66.84 21.35 67.03 21.61 67.12 21.96C67.22 22.29 67.26 22.78 67.26 23.42C67.26 24.3 67.12 24.91 66.84 25.26Z" fill="#FFFFFF" fill-opacity="1.000000" fill-rule="evenodd"/>
	<path id="Vector" d="M89.5 38L89.5 33.5L92.5 33.5L92.5 1.5L10.5 1.5L10.5 4.5L6.5 " stroke="#FFFFFF" stroke-opacity="1.000000" stroke-width="3.000000"/>
</svg>
